<?xml version="1.0" encoding="UTF-8" standalone="no"?>
<!DOCTYPE svg PUBLIC "-//W3C//DTD SVG 1.1//EN" "http://www.w3.org/Graphics/SVG/1.1/DTD/svg11.dtd">
<svg width="100%" height="100%" viewBox="0 0 207 207" version="1.1" xmlns="http://www.w3.org/2000/svg" xmlns:xlink="http://www.w3.org/1999/xlink" xml:space="preserve" xmlns:serif="http://www.serif.com/" style="fill-rule:evenodd;clip-rule:evenodd;stroke-linejoin:round;stroke-miterlimit:2;">
    <g id="XMLID_444_">
        <path id="XMLID_445_" d="M2.5,198.602L43.242,198.602C44.623,198.602 45.742,197.483 45.742,196.102L45.742,16.618C45.742,15.237 44.623,14.118 43.242,14.118L2.5,14.118C1.119,14.118 0,15.237 0,16.618L0,196.102C0,197.483 1.119,198.602 2.5,198.602Z" style="fill:rgb(245,229,226);fill-rule:nonzero;"/>
        <path id="XMLID_446_" d="M124.455,201.531C140.707,201.531 154.994,194.878 163.853,183.459L165.105,196.344C165.23,197.625 166.306,198.602 167.593,198.602L203.562,198.602C204.943,198.602 206.062,197.483 206.062,196.102C206.062,195.942 206.048,195.787 206.019,195.635C205.499,186.871 204.98,171.709 204.98,157.222L204.98,7.031C204.98,5.65 203.861,4.531 202.48,4.531L162.002,4.531C160.621,4.531 159.502,5.65 159.502,7.031L159.502,71.323C152.266,64.351 140.84,60.453 127.117,60.453C111.617,60.453 97.088,66.482 86.205,77.431C73.045,90.672 66.162,109.612 66.299,132.189C66.299,172.369 90.756,201.531 124.455,201.531ZM137.502,164.309C121.961,164.309 112.307,151.492 112.307,130.859C112.307,114.937 118.977,96.343 137.77,96.343C149.674,96.343 157,105.314 159.004,114.241C159.248,116.213 159.502,118.989 159.502,121.004L159.502,138.047C159.502,141.615 159.209,144.205 158.525,146.707C158.511,146.756 158.5,146.805 158.488,146.855C156.305,157.295 147.871,164.309 137.502,164.309Z" style="fill:rgb(245,229,226);fill-rule:nonzero;"/>
    </g>
</svg>
