<?xml version="1.0" encoding="UTF-8" standalone="no"?>
<!DOCTYPE svg PUBLIC "-//W3C//DTD SVG 1.1//EN" "http://www.w3.org/Graphics/SVG/1.1/DTD/svg11.dtd">
<svg width="100%" height="100%" viewBox="0 0 244 244" version="1.1" xmlns="http://www.w3.org/2000/svg" xmlns:xlink="http://www.w3.org/1999/xlink" xml:space="preserve" xmlns:serif="http://www.serif.com/" style="fill-rule:evenodd;clip-rule:evenodd;stroke-linejoin:round;stroke-miterlimit:2;">
    <g id="XMLID_309_">
        <path id="XMLID_311_" d="M45.213,211.003L45.213,149.639C48.486,149.958 52.346,150.124 56.559,150.124C82.235,150.124 102.995,143.351 116.602,130.53C127.748,119.941 133.889,104.165 133.889,86.11C133.889,68.574 126.555,52.718 113.78,42.616C101.221,32.571 82.766,27.687 57.36,27.687C35.352,27.687 16.755,28.953 2.081,31.451C0.879,31.654 0,32.696 0,33.915L0,211.003C0,212.384 1.119,213.503 2.5,213.503L42.713,213.503C44.094,213.503 45.213,212.384 45.213,211.003ZM45.213,113.339L45.213,64.405C47.668,63.934 52.279,63.311 59.488,63.311C78.039,63.311 88.678,72.009 88.678,87.174C88.678,103.95 76.573,113.967 56.293,113.967C51.428,113.967 47.963,113.775 45.213,113.339Z" style="fill:rgb(245,229,226);fill-rule:nonzero;"/>
        <path id="XMLID_334_" d="M206.76,129.02C190.192,123.222 187.397,120.461 187.397,116.467C187.397,109.374 195.506,108.315 200.342,108.315C210.61,108.315 221.321,112.167 227.373,115.465C228.051,115.834 228.857,115.87 229.566,115.563C230.271,115.255 230.798,114.639 230.99,113.893L238.181,85.934C238.474,84.793 237.931,83.602 236.878,83.076C229.413,79.344 215.546,75.355 199.009,75.355C166.335,75.355 143.515,93.904 143.515,120.42C143.294,133.357 149.832,151.069 182.24,161.978C197.982,167.226 199.705,169.953 199.705,174.52C199.705,176.602 199.705,182.938 184.896,182.938C173.802,182.938 158.824,178.011 151.308,173.447C150.626,173.034 149.792,172.969 149.056,173.273C148.322,173.576 147.775,174.211 147.583,174.983L140.394,204.011C140.12,205.118 140.63,206.269 141.632,206.811C152.63,212.755 168.4,216.165 184.896,216.165C221.261,216.165 243.851,199.085 243.851,171.557C243.563,150.866 232.119,137.746 206.76,129.02Z" style="fill:rgb(245,229,226);fill-rule:nonzero;"/>
    </g>
</svg>
