<?xml version="1.0" encoding="UTF-8" standalone="no"?>
<!DOCTYPE svg PUBLIC "-//W3C//DTD SVG 1.1//EN" "http://www.w3.org/Graphics/SVG/1.1/DTD/svg11.dtd">
<svg width="100%" height="100%" viewBox="0 0 232 232" version="1.1" xmlns="http://www.w3.org/2000/svg" xmlns:xlink="http://www.w3.org/1999/xlink" xml:space="preserve" xmlns:serif="http://www.serif.com/" style="fill-rule:evenodd;clip-rule:evenodd;stroke-linejoin:round;stroke-miterlimit:2;">
    <g id="XMLID_449_">
        <path id="XMLID_450_" d="M2.499,211.77L44.575,211.77C45.698,211.77 46.684,211.021 46.985,209.938L59.256,165.701L106.893,165.701L120.206,209.99C120.524,211.047 121.497,211.77 122.601,211.77L166.293,211.77C167.674,211.77 168.793,210.651 168.793,209.27C168.793,208.901 168.715,208.551 168.57,208.236L113.006,29.046C112.682,28 111.713,27.286 110.617,27.286L57.357,27.286C56.257,27.286 55.287,28.004 54.966,29.055L0.109,208.539C-0.121,209.297 0.019,210.12 0.49,210.757C0.962,211.394 1.706,211.77 2.499,211.77ZM99.554,130.342L66.511,130.342L76.275,95.44C78.048,89.151 79.724,81.709 81.345,74.512C81.716,72.859 82.081,71.237 82.443,69.651C84.588,78.273 86.947,87.588 89.312,95.466L99.554,130.342Z" style="fill:rgb(245,229,226);fill-rule:nonzero;"/>
        <path id="XMLID_453_" d="M187.288,76.551C185.907,76.551 184.788,77.67 184.788,79.051L184.788,209.27C184.788,210.651 185.907,211.77 187.288,211.77L227.765,211.77C229.146,211.77 230.265,210.651 230.265,209.27L230.265,79.051C230.265,77.67 229.146,76.551 227.765,76.551L187.288,76.551Z" style="fill:rgb(245,229,226);fill-rule:nonzero;"/>
        <path id="XMLID_454_" d="M207.261,65.571C221.363,65.571 231.597,56.008 231.597,42.776C231.29,29.264 221.392,19.827 207.527,19.827C200.449,19.827 194.164,22.269 189.83,26.705C185.763,30.865 183.596,36.591 183.722,42.832C183.593,48.875 185.765,54.498 189.841,58.672C194.185,63.121 200.372,65.571 207.261,65.571Z" style="fill:rgb(245,229,226);fill-rule:nonzero;"/>
    </g>
</svg>
