<?xml version="1.0" encoding="UTF-8" standalone="no"?>
<!DOCTYPE svg PUBLIC "-//W3C//DTD SVG 1.1//EN" "http://www.w3.org/Graphics/SVG/1.1/DTD/svg11.dtd">
<svg width="100%" height="100%" viewBox="0 0 216 216" version="1.1" xmlns="http://www.w3.org/2000/svg" xmlns:xlink="http://www.w3.org/1999/xlink" xml:space="preserve" xmlns:serif="http://www.serif.com/" style="fill-rule:evenodd;clip-rule:evenodd;stroke-linejoin:round;stroke-miterlimit:2;">
    <path d="M108,0C48.353,0 0,48.353 0,108C0,167.647 48.353,216 108,216C167.647,216 216,167.647 216,108C216,48.353 167.647,0 108,0ZM166.657,61L107.96,102.498L49.679,61L166.657,61ZM171.667,150L44.667,150L44.667,67.259L102.911,108.369C104.258,109.399 106.251,109.914 107.858,109.914C109.503,109.914 110.931,109.374 112.293,108.298L171.667,67.022L171.667,150Z" style="fill:rgb(245,229,226);fill-rule:nonzero;"/>
</svg>
