<?xml version="1.0" encoding="UTF-8" standalone="no"?>
<!DOCTYPE svg PUBLIC "-//W3C//DTD SVG 1.1//EN" "http://www.w3.org/Graphics/SVG/1.1/DTD/svg11.dtd">
<svg width="100%" height="100%" viewBox="0 0 448 448" version="1.1" xmlns="http://www.w3.org/2000/svg" xmlns:xlink="http://www.w3.org/1999/xlink" xml:space="preserve" xmlns:serif="http://www.serif.com/" style="fill-rule:evenodd;clip-rule:evenodd;stroke-linejoin:round;stroke-miterlimit:2;">
    <path d="M328,96L120,96C106.746,96 96,106.746 96,120L96,328C96,341.254 106.746,352 120,352L328,352C341.254,352 352,341.254 352,328L352,120C352,106.746 341.254,96 328,96ZM224,304C179.816,304 144,268.184 144,224C144,179.816 179.816,144 224,144C268.184,144 304,179.816 304,224C303.953,268.164 268.164,303.953 224,304ZM312,160C298.746,160 288,149.254 288,136C288,122.746 298.746,112 312,112C325.254,112 336,122.746 336,136C336,149.254 325.254,160 312,160Z" style="fill:rgb(245,229,226);fill-rule:nonzero;"/>
    <path d="M224,0C100.289,0 0,100.289 0,224C0,347.711 100.289,448 224,448C347.711,448 448,347.711 448,224C447.859,100.348 347.652,0.141 224,0ZM368,328C367.973,350.082 350.082,367.973 328,368L120,368C97.918,367.973 80.027,350.082 80,328L80,120C80.027,97.918 97.918,80.027 120,80L328,80C350.082,80.027 367.973,97.918 368,120L368,328Z" style="fill:rgb(245,229,226);fill-rule:nonzero;"/>
</svg>
