<?xml version="1.0" encoding="UTF-8" standalone="no"?>
<!DOCTYPE svg PUBLIC "-//W3C//DTD SVG 1.1//EN" "http://www.w3.org/Graphics/SVG/1.1/DTD/svg11.dtd">
<svg width="100%" height="100%" viewBox="0 0 448 448" version="1.1" xmlns="http://www.w3.org/2000/svg" xmlns:xlink="http://www.w3.org/1999/xlink" xml:space="preserve" xmlns:serif="http://www.serif.com/" style="fill-rule:evenodd;clip-rule:evenodd;stroke-linejoin:round;stroke-miterlimit:2;">
    <path d="M325,99L123,99C109.746,99 99,109.746 99,123L99,325C99,338.254 109.746,349 123,349L325,349C338.254,349 349,338.254 349,325L349,123C349,109.746 338.254,99 325,99ZM224,301C179.816,301 147,268.184 147,224C147,179.816 179.816,147 224,147C268.184,147 301,179.816 301,224C300.953,268.164 268.164,300.953 224,301ZM309,163C295.746,163 285,152.254 285,139C285,125.746 295.746,115 309,115C322.254,115 333,125.746 333,139C333,152.254 322.254,163 309,163Z" style="fill:rgb(245,229,226);fill-rule:nonzero;"/>
    <path d="M224,0C100.289,0 0,100.289 0,224C0,347.711 100.289,448 224,448C347.711,448 448,347.711 448,224C447.859,100.348 347.652,0.141 224,0ZM368,328C367.973,350.082 350.082,367.973 328,368L120,368C97.918,367.973 80.027,350.082 80,328L80,120C80.027,97.918 97.918,80.027 120,80L328,80C350.082,80.027 367.973,97.918 368,120L368,328Z" style="fill:rgb(245,229,226);fill-rule:nonzero;"/>
</svg>
